<svg width="34" height="34" viewBox="0 0 34 34" fill="none" xmlns="http://www.w3.org/2000/svg">
<circle cx="17" cy="17" r="17" fill="#C8C7CC"/>
<rect x="5.1001" y="5.09998" width="23.8" height="23.8" fill="#FF0000" fill-opacity="0.01"/>
<path d="M15.2331 11.9632C14.9907 9.17452 12.0813 7.80618 11.9582 7.75033C11.8427 7.69574 11.7132 7.67924 11.5888 7.70082C8.23019 8.25806 7.725 10.2128 7.70469 10.2941C7.67676 10.4083 7.68184 10.5264 7.71738 10.6368C11.7234 23.0661 20.049 25.3699 22.7856 26.1277C22.9963 26.1861 23.1702 26.2331 23.3023 26.2762C23.3657 26.2978 23.4317 26.3067 23.4977 26.3067C23.5879 26.3067 23.678 26.2877 23.7605 26.2496C23.8443 26.2115 25.8219 25.2798 26.3055 22.241C26.3271 22.109 26.3055 21.9719 26.2446 21.8526C26.2014 21.7688 25.1669 19.8001 22.2982 19.1045C22.0977 19.0525 21.892 19.1058 21.7372 19.2378C20.8321 20.0108 19.5818 20.8346 19.0424 20.9197C15.426 19.1515 13.4065 15.7585 13.3304 15.115C13.2859 14.7532 14.1148 13.4826 15.0681 12.4494C15.1887 12.3187 15.2496 12.1409 15.2331 11.9632Z" fill="black"/>
<mask id="mask0" mask-type="alpha" maskUnits="userSpaceOnUse" x="7" y="7" width="20" height="20">
<path d="M15.2331 11.9632C14.9907 9.17452 12.0813 7.80618 11.9582 7.75033C11.8427 7.69574 11.7132 7.67924 11.5888 7.70082C8.23019 8.25806 7.725 10.2128 7.70469 10.2941C7.67676 10.4083 7.68184 10.5264 7.71738 10.6368C11.7234 23.0661 20.049 25.3699 22.7856 26.1277C22.9963 26.1861 23.1702 26.2331 23.3023 26.2762C23.3657 26.2978 23.4317 26.3067 23.4977 26.3067C23.5879 26.3067 23.678 26.2877 23.7605 26.2496C23.8443 26.2115 25.8219 25.2798 26.3055 22.241C26.3271 22.109 26.3055 21.9719 26.2446 21.8526C26.2014 21.7688 25.1669 19.8001 22.2982 19.1045C22.0977 19.0525 21.892 19.1058 21.7372 19.2378C20.8321 20.0108 19.5818 20.8346 19.0424 20.9197C15.426 19.1515 13.4065 15.7585 13.3304 15.115C13.2859 14.7532 14.1148 13.4826 15.0681 12.4494C15.1887 12.3187 15.2496 12.1409 15.2331 11.9632Z" fill="white"/>
</mask>
<g mask="url(#mask0)">
<rect x="5.1001" y="5.09998" width="23.8" height="23.8" fill="white"/>
</g>
</svg>
