<svg width="34" height="34" viewBox="0 0 34 34" fill="none" xmlns="http://www.w3.org/2000/svg">
<circle cx="17" cy="17" r="17" fill="#C8C7CC"/>
<rect x="5.1001" y="5.09998" width="23.8" height="23.8" fill="#FF0000" fill-opacity="0.01"/>
<path fill-rule="evenodd" clip-rule="evenodd" d="M20.721 25.124C19.5814 25.5909 18.3227 25.8517 17 25.8517C11.7411 25.8517 7.47998 21.7417 7.47998 16.6659C7.47998 11.5946 11.7411 7.47998 17 7.47998C22.2589 7.47998 26.52 11.5946 26.5108 16.675C26.5108 18.5012 25.957 20.2038 25.0004 21.6364C24.9592 21.6867 24.9226 21.7462 24.886 21.8057C24.7762 22.0026 24.7075 22.2314 24.7075 22.474L25.719 26.52L21.8744 25.1057C21.7051 25.0325 21.5174 24.9959 21.3206 24.9959C21.1421 24.9959 20.9682 25.0279 20.808 25.0874C20.808 25.092 20.8034 25.092 20.7988 25.092C20.7714 25.1011 20.7485 25.1103 20.721 25.124ZM22.8584 17C22.8584 16.1899 22.2039 15.5354 21.3938 15.5354C20.5837 15.5354 19.9292 16.1899 19.9292 17C19.9292 17.8101 20.5837 18.4646 21.3938 18.4646C22.2039 18.4646 22.8584 17.8101 22.8584 17ZM17 15.5354C17.8101 15.5354 18.4646 16.1899 18.4646 17C18.4646 17.8101 17.8101 18.4646 17 18.4646C16.1899 18.4646 15.5354 17.8101 15.5354 17C15.5354 16.1899 16.1899 15.5354 17 15.5354ZM14.0707 17C14.0707 16.1899 13.4162 15.5354 12.6061 15.5354C11.796 15.5354 11.1415 16.1899 11.1415 17C11.1415 17.8101 11.796 18.4646 12.6061 18.4646C13.4162 18.4646 14.0707 17.8101 14.0707 17Z" fill="black"/>
<mask id="mask0" mask-type="alpha" maskUnits="userSpaceOnUse" x="7" y="7" width="20" height="20">
<path fill-rule="evenodd" clip-rule="evenodd" d="M20.721 25.124C19.5814 25.5909 18.3227 25.8517 17 25.8517C11.7411 25.8517 7.47998 21.7417 7.47998 16.6659C7.47998 11.5946 11.7411 7.47998 17 7.47998C22.2589 7.47998 26.52 11.5946 26.5108 16.675C26.5108 18.5012 25.957 20.2038 25.0004 21.6364C24.9592 21.6867 24.9226 21.7462 24.886 21.8057C24.7762 22.0026 24.7075 22.2314 24.7075 22.474L25.719 26.52L21.8744 25.1057C21.7051 25.0325 21.5174 24.9959 21.3206 24.9959C21.1421 24.9959 20.9682 25.0279 20.808 25.0874C20.808 25.092 20.8034 25.092 20.7988 25.092C20.7714 25.1011 20.7485 25.1103 20.721 25.124ZM22.8584 17C22.8584 16.1899 22.2039 15.5354 21.3938 15.5354C20.5837 15.5354 19.9292 16.1899 19.9292 17C19.9292 17.8101 20.5837 18.4646 21.3938 18.4646C22.2039 18.4646 22.8584 17.8101 22.8584 17ZM17 15.5354C17.8101 15.5354 18.4646 16.1899 18.4646 17C18.4646 17.8101 17.8101 18.4646 17 18.4646C16.1899 18.4646 15.5354 17.8101 15.5354 17C15.5354 16.1899 16.1899 15.5354 17 15.5354ZM14.0707 17C14.0707 16.1899 13.4162 15.5354 12.6061 15.5354C11.796 15.5354 11.1415 16.1899 11.1415 17C11.1415 17.8101 11.796 18.4646 12.6061 18.4646C13.4162 18.4646 14.0707 17.8101 14.0707 17Z" fill="white"/>
</mask>
<g mask="url(#mask0)">
<rect x="5.1001" y="5.09998" width="23.8" height="23.8" fill="white"/>
</g>
</svg>
