<svg width="39" height="53" viewBox="0 0 39 53" fill="none" xmlns="http://www.w3.org/2000/svg">
<path d="M20.1083 52.092L20.1083 52.0921C19.6211 52.6348 18.7685 52.6356 18.2805 52.092L17.9084 52.4261L18.2805 52.092C17.9219 51.6927 13.4625 46.6885 9.09571 40.1525C6.91234 36.8846 4.75883 33.2435 3.15264 29.6112C1.5437 25.9727 0.5 22.3784 0.5 19.1943C0.5 8.88669 8.88669 0.5 19.1944 0.5C29.502 0.5 37.8886 8.88669 37.8888 19.1943C37.8888 22.3784 36.8451 25.9727 35.2362 29.6112C33.63 33.2435 31.4764 36.8846 29.2931 40.1525C24.9263 46.6885 20.4669 51.6927 20.1083 52.092ZM9.03731 19.1943C9.03731 24.7954 13.5932 29.3515 19.1944 29.3515C24.7954 29.3515 29.3514 24.7955 29.3514 19.1944C29.3514 13.5933 24.7954 9.03721 19.1944 9.03721C13.5934 9.03721 9.03731 13.5931 9.03731 19.1943Z" fill="#957806" stroke="#FEFEFE"/>
</svg>
