<svg width="34" height="34" viewBox="0 0 34 34" fill="none" xmlns="http://www.w3.org/2000/svg">
<rect width="34" height="34" fill="#FF0000" fill-opacity="0.01"/>
<path fill-rule="evenodd" clip-rule="evenodd" d="M6.53333 4.53333C5.42876 4.53333 4.53333 5.42876 4.53333 6.53333V24.0667C4.53333 25.1712 5.42875 26.0667 6.53332 26.0667H27.4667C28.5712 26.0667 29.4667 25.1712 29.4667 24.0667V6.53333C29.4667 5.42876 28.5712 4.53333 27.4667 4.53333H6.53333ZM27.2 27.2H6.8V27.4667C6.8 28.5712 7.69543 29.4667 8.8 29.4667H25.2C26.3046 29.4667 27.2 28.5712 27.2 27.4667V27.2Z" fill="#C8C7CC"/>
<mask id="mask0" mask-type="alpha" maskUnits="userSpaceOnUse" x="4" y="4" width="26" height="26">
<path fill-rule="evenodd" clip-rule="evenodd" d="M6.53333 4.53333C5.42876 4.53333 4.53333 5.42876 4.53333 6.53333V24.0667C4.53333 25.1712 5.42875 26.0667 6.53332 26.0667H27.4667C28.5712 26.0667 29.4667 25.1712 29.4667 24.0667V6.53333C29.4667 5.42876 28.5712 4.53333 27.4667 4.53333H6.53333ZM27.2 27.2H6.8V27.4667C6.8 28.5712 7.69543 29.4667 8.8 29.4667H25.2C26.3046 29.4667 27.2 28.5712 27.2 27.4667V27.2Z" fill="white"/>
</mask>
<g mask="url(#mask0)">
</g>
</svg>
