<svg width="42" height="42" viewBox="0 0 42 42" fill="none" xmlns="http://www.w3.org/2000/svg">
<circle cx="21" cy="21" r="21" fill="white"/>
<g clip-path="url(#clip0)">
<path d="M29.7442 12.2565C29.4949 12.0063 29.1203 11.9328 28.794 12.0649L9.54391 19.9399C9.18428 20.0878 8.96464 20.4544 9.00578 20.8412C9.04602 21.2279 9.33653 21.5412 9.71892 21.6112L18.7481 23.2527L20.3905 32.2818C20.4596 32.6642 20.7729 32.9547 21.1596 32.9958C21.1903 32.9985 21.2209 33.0002 21.2506 33.0002C21.6024 33.0002 21.9253 32.7876 22.0609 32.456L29.9359 13.2059C30.0689 12.8804 29.9936 12.5059 29.7442 12.2565Z" fill="#3F44AB"/>
</g>
<defs>
<clipPath id="clip0">
<rect width="21" height="21" fill="white" transform="translate(9 12)"/>
</clipPath>
</defs>
</svg>
