<svg width="16" height="16" viewBox="0 0 16 16" fill="none" xmlns="http://www.w3.org/2000/svg">
<path d="M15.9513 6.03517C15.8332 5.65653 15.5198 5.3804 15.1434 5.32287L10.8282 4.6681L8.89788 0.583644C8.72868 0.225927 8.38126 0 7.9998 0C7.61835 0 7.27093 0.225927 7.10173 0.583644L5.17241 4.6681L0.857244 5.32287C0.479792 5.3804 0.166416 5.65653 0.0492761 6.03517C-0.0688654 6.41381 0.0292521 6.82905 0.30258 7.10728L3.42532 10.287L2.68844 14.7773C2.62436 15.1695 2.77855 15.5659 3.08692 15.8002C3.26012 15.9331 3.46637 16 3.67462 16C3.83381 16 3.994 15.9603 4.14018 15.8797L7.9998 13.7596L11.8594 15.8797C12.0056 15.9603 12.1658 16 12.325 16C12.5322 16 12.7395 15.9331 12.9137 15.8002C13.2221 15.5659 13.3762 15.1695 13.3122 14.7773L12.5753 10.287L15.698 7.10728C15.9704 6.8301 16.0685 6.41381 15.9513 6.03517Z" fill="#FFCC00"/>
</svg>
