<svg width="32" height="34" viewBox="0 0 32 34" fill="none" xmlns="http://www.w3.org/2000/svg">
<circle cx="27.3334" cy="17.9519" r="2" fill="#C8C7CC"/>
<path d="M8.71313 5.16127L23.7558 2.44962C24.2963 2.35219 24.8142 2.7089 24.9159 3.24862L25.2762 5.16127L8.71313 5.16127Z" fill="#C8C7CC"/>
<path d="M29.3333 13.7344C28.7271 13.4464 28.049 13.2853 27.3333 13.2853C24.756 13.2853 22.6666 15.3747 22.6666 17.952C22.6666 20.5293 24.756 22.6187 27.3333 22.6187C28.049 22.6187 28.7271 22.4575 29.3333 22.1696V25.2853C29.3333 26.7581 28.1394 27.952 26.6666 27.952H5.33329C3.86053 27.952 2.66663 26.7581 2.66663 25.2853V9.28532C2.66663 7.81256 3.86053 6.61865 5.33329 6.61865H26.6666C28.1394 6.61865 29.3333 7.81256 29.3333 9.28532V13.7344Z" fill="#C8C7CC"/>
</svg>
